<?xml version="1.0" standalone="no"?>
<!DOCTYPE svg PUBLIC "-//W3C//DTD SVG 20010904//EN"
  "http://www.w3.org/TR/2001/REC-SVG-20010904/DTD/svg10.dtd">
<svg version="1.0" xmlns="http://www.w3.org/2000/svg"
     width="300.000000pt" height="300.000000pt" viewBox="0 0 300.000000 300.000000"
     preserveAspectRatio="xMidYMid meet">
  <metadata>
    Created by potrace 1.11, written by Peter Selinger 2001-2013
  </metadata>
  <g transform="translate(0.000000,300.000000) scale(0.100000,-0.100000)"
     fill="#000000" stroke="none">
    <path d="M817 2815 c-199 -51 -280 -324 -207 -704 11 -58 18 -107 15 -109 -2
-2 -43 -17 -90 -33 -108 -37 -251 -107 -331 -165 -126 -89 -205 -211 -200
-309 9 -175 242 -377 551 -476 39 -12 71 -23 73 -24 1 -1 -5 -35 -13 -76 -22
-104 -30 -198 -28 -324 5 -319 163 -470 421 -404 130 33 304 133 434 249 31
27 60 50 65 50 5 0 20 -12 34 -26 45 -48 213 -169 296 -212 302 -157 509 -73
568 229 19 99 13 325 -13 436 l-18 82 75 26 c331 117 543 301 545 475 3 169
-205 354 -514 461 -52 17 -98 35 -102 38 -4 4 -1 38 7 76 51 241 33 491 -45
618 -131 214 -423 167 -759 -123 -78 -67 -82 -69 -99 -52 -37 37 -160 131
-227 175 -167 106 -325 151 -438 122z"/>
  </g>
</svg>
